# xmcd
#
# Track frame offsets:
#	150
#	24923
#	52351
#	73402
#	98640
#	119812
#	144095
#	172788
#	205963
#	239215
#	269600
#	294754
#	317433
#
# Disc length: 4555 seconds
#
# Revision: 1
# Processed by: cddbd v1.5.2PL0 Copyright (c) Steve Scherf et al.
# Submitted via: audiograbber 1.83.01
#
DISCID=c511c90d
DTITLE=Andreas Franz - Syndikat der Spinne
DYEAR=2002
DGENRE=Hörbuch
TTITLE0=192
TTITLE1=193
TTITLE2=194
TTITLE3=195
TTITLE4=196
TTITLE5=197
TTITLE6=198
TTITLE7=199
TTITLE8=200
TTITLE9=201
TTITLE10=202
TTITLE11=203
TTITLE12=204
EXTD=
EXTT0=
EXTT1=
EXTT2=
EXTT3=
EXTT4=
EXTT5=
EXTT6=
EXTT7=
EXTT8=
EXTT9=
EXTT10=
EXTT11=
EXTT12=
PLAYORDER=
